<svg xmlns="http://www.w3.org/2000/svg" xmlns:xlink="http://www.w3.org/1999/xlink" viewBox="0 0 187.23 177.79"><defs><style>.cls-1{fill:url(#linear-gradient);}.cls-2{fill:#fff;}.cls-3{fill:#e5e5e4;}.cls-4{fill:none;}</style><linearGradient id="linear-gradient" x1="-10.2" y1="148.83" x2="197.42" y2="28.96" gradientUnits="userSpaceOnUse"><stop offset="0" stop-color="#057a41"/><stop offset="0.13" stop-color="#058143"/><stop offset="0.68" stop-color="#049b4c"/><stop offset="1" stop-color="#04a54f"/></linearGradient></defs><g id="Layer_2" data-name="Layer 2"><g id="Objects"><rect class="cls-1" width="187.23" height="177.79" rx="15.44"/><path class="cls-2" d="M143.77,46.19a8.27,8.27,0,0,0-2.72-.46,8.64,8.64,0,0,0-7.38,4.38l0,0v0L117.53,78.73l-5.59,9.9L94,120.44a.42.42,0,0,1-.38.23.41.41,0,0,1-.37-.23l-18-31.83-5.58-9.9-16-28.43-.08-.14a8.67,8.67,0,0,0-7.41-4.41,8.21,8.21,0,0,0-2.71.46,9.67,9.67,0,0,0-6.37,9.48v66.54a9.67,9.67,0,0,0,6.37,9.48,8.25,8.25,0,0,0,2.71.46,8.65,8.65,0,0,0,7.39-4.38l0,0,0,0L67.84,102l-5.58-9.9L46.55,120.44v-63l38.67,68.52a9.67,9.67,0,0,0,8.41,5.15,9.24,9.24,0,0,0,2.52-.35,9.67,9.67,0,0,0,4.3-2.63,10.93,10.93,0,0,0,1.59-2.17l38.64-68.52v63L125,92.21l-5.59,9.9,14.1,25.46.1.16a8.65,8.65,0,0,0,7.4,4.42,8.52,8.52,0,0,0,2.72-.45,9.7,9.7,0,0,0,6.37-9.49V55.67A9.68,9.68,0,0,0,143.77,46.19Z"/><path class="cls-2" d="M136.65,48.29a3.65,3.65,0,0,0-2.24.78,8.83,8.83,0,0,0-.74,1l0,0v0L117.53,78.73l-5.59,9.9L94,120.44a.42.42,0,0,1-.38.23.41.41,0,0,1-.37-.23l-18-31.83-5.58-9.9-16-28.43-.08-.14A9.75,9.75,0,0,0,53,49.3a3.67,3.67,0,0,0-2.51-1,4.15,4.15,0,0,0-3.94,4.33v4.8l38.67,68.51a9.67,9.67,0,0,0,8.41,5.15,9.24,9.24,0,0,0,2.52-.35,9.67,9.67,0,0,0,4.3-2.63,10.93,10.93,0,0,0,1.59-2.17l38.64-68.52-.09-4.79A4.15,4.15,0,0,0,136.65,48.29Z"/><path class="cls-3" d="M140.59,125.31l-.08-5.18L125,92.21l-5.59,9.9,14.1,25.46.1.16a10.35,10.35,0,0,0,.9,1.24,3.7,3.7,0,0,0,2.1.68A4.16,4.16,0,0,0,140.59,125.31Z"/><path class="cls-3" d="M50.48,129.65a3.7,3.7,0,0,0,2.43-.94,10.44,10.44,0,0,0,.65-.94l0,0,0,0L67.84,102l-5.58-9.9L46.65,120.25l-.11,5.06A4.15,4.15,0,0,0,50.48,129.65Z"/><polygon class="cls-4" points="111.94 88.63 111.94 88.63 111.72 89.04 111.94 88.63"/><path class="cls-2" d="M140.59,52.62a4.15,4.15,0,0,0-3.94-4.33,3.65,3.65,0,0,0-2.24.78,8.83,8.83,0,0,0-.74,1l0,0v0L94,120.44a.42.42,0,0,1-.38.23.38.38,0,0,1-.32-.16l1,2.09c2.34,4.49,6.88,4.57,8.46,1.73l1-1.5,36.89-65.42Z"/><path class="cls-3" d="M84.45,52.37l-1.9,3.16-11,19.71,5.66,10,16-29a.42.42,0,0,1,.76,0L92.91,54.1C90.57,49.61,86,49.54,84.45,52.37Z"/><path class="cls-3" d="M115.58,75.2,102.06,50.86a9.45,9.45,0,0,0-16.9,0l-2.61,4.67,1.9-3.16c1.58-2.83,6.12-2.76,8.46,1.73l1,2,.48.88,1.86,3.33L110,85.14Z"/></g></g></svg>