<svg xmlns="http://www.w3.org/2000/svg" xmlns:xlink="http://www.w3.org/1999/xlink" viewBox="0 0 222.6 36.34"><defs><style>.cls-1{fill:none;}.cls-2{clip-path:url(#clip-path);}.cls-3{fill:#057a41;}.cls-4{fill:#057d42;}.cls-5{fill:#058144;}.cls-6{fill:#058445;}.cls-7{fill:#058746;}.cls-8{fill:#058a47;}.cls-9{fill:#068d48;}.cls-10{fill:#069049;}.cls-11{fill:#069349;}.cls-12{fill:#06954a;}.cls-13{fill:#06974b;}.cls-14{fill:#069a4b;}.cls-15{fill:#059c4c;}.cls-16{fill:#059d4c;}.cls-17{fill:#059f4d;}.cls-18{fill:#04a14d;}.cls-19{fill:#04a24e;}.cls-20{fill:#04a34e;}.cls-21{fill:#04a44e;}.cls-22{fill:#04a54f;}.cls-23{clip-path:url(#clip-path-2);}.cls-24{clip-path:url(#clip-path-3);}.cls-25{clip-path:url(#clip-path-4);}.cls-26{clip-path:url(#clip-path-5);}.cls-27{clip-path:url(#clip-path-6);}.cls-28{clip-path:url(#clip-path-7);}.cls-29{fill:#058043;}.cls-30{fill:#058244;}.cls-31{fill:#058545;}.cls-32{fill:#058846;}.cls-33{fill:#068f48;}.cls-34{fill:#069249;}.cls-35{fill:#06944a;}.cls-36{fill:#06964a;}.cls-37{fill:#06984b;}.cls-38{fill:#069a4c;}.cls-39{fill:#059e4d;}.cls-40{fill:#04a04d;}.cls-41{clip-path:url(#clip-path-8);}</style><clipPath id="clip-path" transform="translate(0 0)"><path class="cls-1" d="M49.35.23a4.12,4.12,0,0,0-4.67,1.65h0l-7.45,12-2.58,4.16-8.3,13.36a.17.17,0,0,1-.17.1.19.19,0,0,1-.18-.1L17.67,18.05l-2.58-4.16L7.67,2l0-.06A4.13,4.13,0,0,0,3,.23,4.1,4.1,0,0,0,0,4.21v28a4.1,4.1,0,0,0,3,4A4.12,4.12,0,0,0,7.62,34.5h0l6.59-10.8-2.59-4.16L4.38,31.43V4.94L22.27,33.73a4.54,4.54,0,0,0,3.89,2.17,4.91,4.91,0,0,0,1.16-.15,4.62,4.62,0,0,0,2-1.11,4.68,4.68,0,0,0,.74-.91L47.92,4.94V31.43L40.69,19.56,38.1,23.72l6.53,10.7,0,.07a4.17,4.17,0,0,0,7.63-2.32v-28A4.1,4.1,0,0,0,49.35.23Z"/></clipPath><clipPath id="clip-path-2" transform="translate(0 0)"><path class="cls-1" d="M46.06,1.11a1.79,1.79,0,0,0-1,.33,5.12,5.12,0,0,0-.34.44h0l-7.45,12-2.58,4.16-8.3,13.36a.17.17,0,0,1-.17.1.19.19,0,0,1-.18-.1L17.67,18.05l-2.58-4.16L7.67,2l0-.06-.27-.35a1.79,1.79,0,0,0-1.17-.43A1.83,1.83,0,0,0,4.37,2.93V5L22.27,33.73a4.54,4.54,0,0,0,3.89,2.17,4.91,4.91,0,0,0,1.16-.15,4.62,4.62,0,0,0,2-1.11,4.68,4.68,0,0,0,.74-.91L47.92,4.94l0-2A1.83,1.83,0,0,0,46.06,1.11Z"/></clipPath><clipPath id="clip-path-3" transform="translate(0 0)"><path class="cls-1" d="M47.88,33.47l0-2.17L40.69,19.56,38.1,23.72l6.53,10.7,0,.07a4.33,4.33,0,0,0,.42.52,1.78,1.78,0,0,0,1,.28A1.82,1.82,0,0,0,47.88,33.47Z"/></clipPath><clipPath id="clip-path-4" transform="translate(0 0)"><path class="cls-1" d="M6.19,35.29a1.84,1.84,0,0,0,1.13-.39c.1-.13.21-.26.3-.4h0l6.59-10.8-2.59-4.16L4.42,31.35l0,2.12A1.82,1.82,0,0,0,6.19,35.29Z"/></clipPath><clipPath id="clip-path-5" transform="translate(0 0)"><polygon class="cls-1" points="34.63 18.06 34.63 18.06 34.52 18.23 34.63 18.06"/></clipPath><clipPath id="clip-path-6" transform="translate(0 0)"><path class="cls-1" d="M47.88,2.93a1.83,1.83,0,0,0-1.82-1.82,1.79,1.79,0,0,0-1,.33,5.12,5.12,0,0,0-.34.44h0L26.33,31.42a.17.17,0,0,1-.17.1.18.18,0,0,1-.15-.06l.48.87c1.08,1.89,3.18,1.92,3.91.73l.46-.63L47.92,4.94Z"/></clipPath><clipPath id="clip-path-7" transform="translate(0 0)"><path class="cls-1" d="M21.91,2.83,21,4.15l-5.09,8.29,2.62,4.2L26,4.47a.22.22,0,0,1,.35,0l-.49-.91C24.74,1.67,22.64,1.64,21.91,2.83Z"/></clipPath><clipPath id="clip-path-8" transform="translate(0 0)"><path class="cls-1" d="M36.31,12.42,30.06,2.19a4.59,4.59,0,0,0-7.82,0L21,4.15l.88-1.32c.73-1.19,2.83-1.16,3.92.73l.44.82.22.37.86,1.41L33.72,16.6Z"/></clipPath></defs><g id="Layer_2" data-name="Layer 2"><g id="Objects"><g class="cls-2"><polygon class="cls-3" points="49.87 36.34 52.3 33.92 52.3 36.34 49.87 36.34"/><polygon class="cls-3" points="45.88 36.34 52.3 29.93 52.3 33.92 49.87 36.34 45.88 36.34"/><polygon class="cls-4" points="41.9 36.34 52.3 25.94 52.3 29.93 45.88 36.34 41.9 36.34"/><polygon class="cls-5" points="37.91 36.34 52.3 21.95 52.3 25.94 41.9 36.34 37.91 36.34"/><polygon class="cls-6" points="33.92 36.34 52.3 17.96 52.3 21.95 37.91 36.34 33.92 36.34"/><polygon class="cls-7" points="29.93 36.34 52.3 13.98 52.3 17.96 33.92 36.34 29.93 36.34"/><polygon class="cls-8" points="25.94 36.34 52.3 9.99 52.3 13.98 29.93 36.34 25.94 36.34"/><polygon class="cls-9" points="21.96 36.34 52.3 6 52.3 9.99 25.94 36.34 21.96 36.34"/><polygon class="cls-10" points="17.97 36.34 52.3 2.01 52.3 6 21.96 36.34 17.97 36.34"/><polygon class="cls-11" points="13.98 36.34 50.28 0.04 52.3 0.04 52.3 2.01 17.97 36.34 13.98 36.34"/><polygon class="cls-12" points="9.99 36.34 46.3 0.04 50.28 0.04 13.98 36.34 9.99 36.34"/><polygon class="cls-13" points="6 36.34 42.31 0.04 46.3 0.04 9.99 36.34 6 36.34"/><polygon class="cls-14" points="2.02 36.34 38.32 0.04 42.31 0.04 6 36.34 2.02 36.34"/><polygon class="cls-15" points="0 34.37 34.33 0.04 38.32 0.04 2.02 36.34 0 36.34 0 34.37"/><polygon class="cls-16" points="0 30.38 30.34 0.04 34.33 0.04 0 34.37 0 30.38"/><polygon class="cls-17" points="0 26.39 26.36 0.04 30.34 0.04 0 30.38 0 26.39"/><polygon class="cls-18" points="0 22.41 22.37 0.04 26.36 0.04 0 26.39 0 22.41"/><polygon class="cls-19" points="0 18.42 18.38 0.04 22.37 0.04 0 22.41 0 18.42"/><polygon class="cls-20" points="0 14.43 14.39 0.04 18.38 0.04 0 18.42 0 14.43"/><polygon class="cls-21" points="0 10.44 10.4 0.04 14.39 0.04 0 14.43 0 10.44"/><polygon class="cls-22" points="0 6.45 6.41 0.04 10.4 0.04 0 10.44 0 6.45"/><polygon class="cls-22" points="0 2.46 2.43 0.04 6.41 0.04 0 6.45 0 2.46"/><polygon class="cls-22" points="2.43 0.04 0 2.46 0 0.04 2.43 0.04"/></g><g class="cls-23"><polygon class="cls-3" points="28.06 35.9 47.92 16.03 47.92 35.9 28.06 35.9"/><polygon class="cls-3" points="25.32 35.9 47.92 13.3 47.92 16.03 28.06 35.9 25.32 35.9"/><polygon class="cls-4" points="22.59 35.9 47.92 10.56 47.92 13.3 25.32 35.9 22.59 35.9"/><polygon class="cls-5" points="21.09 35.9 20.47 35.28 47.92 7.83 47.92 10.56 22.59 35.9 21.09 35.9"/><polygon class="cls-6" points="20.47 35.28 19.11 33.91 47.92 5.1 47.92 7.83 20.47 35.28"/><polygon class="cls-7" points="19.11 33.91 17.74 32.55 47.92 2.36 47.92 5.1 19.11 33.91"/><polygon class="cls-8" points="17.74 32.55 16.37 31.18 46.44 1.11 47.92 1.11 47.92 2.36 17.74 32.55"/><polygon class="cls-9" points="16.37 31.18 15.01 29.81 43.71 1.11 46.44 1.11 16.37 31.18"/><polygon class="cls-10" points="15.01 29.81 13.64 28.45 40.97 1.11 43.71 1.11 15.01 29.81"/><polygon class="cls-11" points="13.64 28.45 12.27 27.08 38.24 1.11 40.97 1.11 13.64 28.45"/><polygon class="cls-12" points="12.27 27.08 10.91 25.71 35.51 1.11 38.24 1.11 12.27 27.08"/><polygon class="cls-13" points="10.91 25.71 9.54 24.35 32.77 1.11 35.51 1.11 10.91 25.71"/><polygon class="cls-14" points="9.54 24.35 8.17 22.98 30.04 1.11 32.77 1.11 9.54 24.35"/><polygon class="cls-15" points="8.17 22.98 6.81 21.61 27.31 1.11 30.04 1.11 8.17 22.98"/><polygon class="cls-16" points="6.81 21.61 5.44 20.25 24.57 1.11 27.31 1.11 6.81 21.61"/><polygon class="cls-17" points="5.44 20.25 4.37 19.18 4.37 18.58 21.84 1.11 24.57 1.11 5.44 20.25"/><polygon class="cls-18" points="4.37 15.85 19.11 1.11 21.84 1.11 4.37 18.58 4.37 15.85"/><polygon class="cls-19" points="4.37 13.11 16.37 1.11 19.11 1.11 4.37 15.85 4.37 13.11"/><polygon class="cls-20" points="4.37 10.38 13.64 1.11 16.37 1.11 4.37 13.11 4.37 10.38"/><polygon class="cls-21" points="4.37 7.65 10.91 1.11 13.64 1.11 4.37 10.38 4.37 7.65"/><polygon class="cls-22" points="4.37 4.91 8.17 1.11 10.91 1.11 4.37 7.65 4.37 4.91"/><polygon class="cls-22" points="4.37 2.18 5.44 1.11 8.17 1.11 4.37 4.91 4.37 2.18"/><polygon class="cls-22" points="5.44 1.11 4.37 2.18 4.37 1.11 5.44 1.11"/></g><g class="cls-24"><polygon class="cls-3" points="46.81 35.29 47.88 34.23 47.88 35.29 46.81 35.29"/><polygon class="cls-3" points="45.77 35.29 47.88 33.19 47.88 34.23 46.81 35.29 45.77 35.29"/><polygon class="cls-4" points="44.73 35.29 47.88 32.15 47.88 33.19 45.77 35.29 44.73 35.29"/><polygon class="cls-5" points="43.69 35.29 47.88 31.1 47.88 32.15 44.73 35.29 43.69 35.29"/><polygon class="cls-6" points="42.65 35.29 47.88 30.06 47.88 31.1 43.69 35.29 42.65 35.29"/><polygon class="cls-7" points="42.54 35.29 42.08 34.83 47.88 29.02 47.88 30.06 42.65 35.29 42.54 35.29"/><polygon class="cls-8" points="42.08 34.83 41.56 34.31 47.88 27.98 47.88 29.02 42.08 34.83"/><polygon class="cls-9" points="41.56 34.31 41.04 33.78 47.88 26.94 47.88 27.98 41.56 34.31"/><polygon class="cls-10" points="41.04 33.78 40.52 33.27 47.88 25.9 47.88 26.94 41.04 33.78"/><polygon class="cls-11" points="40.52 33.27 39.99 32.74 47.88 24.86 47.88 25.9 40.52 33.27"/><polygon class="cls-12" points="39.99 32.74 39.48 32.22 47.83 23.87 47.88 23.93 47.88 24.86 39.99 32.74"/><rect class="cls-13" x="37.48" y="27.42" width="11.81" height="0.74" transform="translate(-6.94 38.82) rotate(-45)"/><rect class="cls-14" x="36.96" y="26.9" width="11.81" height="0.74" transform="translate(-6.73 38.3) rotate(-45)"/><polygon class="cls-15" points="38.43 31.18 38.1 30.85 38.1 30.48 46.27 22.31 46.78 22.83 38.43 31.18"/><polygon class="cls-16" points="38.1 29.43 45.74 21.79 46.27 22.31 38.1 30.48 38.1 29.43"/><polygon class="cls-17" points="38.1 28.39 45.22 21.27 45.74 21.79 38.1 29.43 38.1 28.39"/><polygon class="cls-18" points="38.1 27.35 44.7 20.75 45.22 21.27 38.1 28.39 38.1 27.35"/><polygon class="cls-19" points="38.1 26.31 44.18 20.23 44.7 20.75 38.1 27.35 38.1 26.31"/><polygon class="cls-20" points="38.1 25.27 43.66 19.71 44.18 20.23 38.1 26.31 38.1 25.27"/><polygon class="cls-21" points="38.1 24.23 42.77 19.56 43.52 19.56 43.66 19.71 38.1 25.27 38.1 24.23"/><polygon class="cls-22" points="38.1 23.19 41.73 19.56 42.77 19.56 38.1 24.23 38.1 23.19"/><polygon class="cls-22" points="38.1 22.15 40.69 19.56 41.73 19.56 38.1 23.19 38.1 22.15"/><polygon class="cls-22" points="40.69 19.56 38.1 22.15 38.1 19.56 40.69 19.56"/></g><g class="cls-25"><polygon class="cls-3" points="6.92 35.29 14.23 27.99 14.23 35.29 6.92 35.29"/><polygon class="cls-3" points="6.4 35.29 14.23 27.46 14.23 27.99 6.92 35.29 6.4 35.29"/><polygon class="cls-4" points="5.87 35.29 14.23 26.93 14.23 27.46 6.4 35.29 5.87 35.29"/><polygon class="cls-5" points="5.34 35.29 14.23 26.41 14.23 26.93 5.87 35.29 5.34 35.29"/><polygon class="cls-6" points="4.82 35.29 14.23 25.88 14.23 26.41 5.34 35.29 4.82 35.29"/><polygon class="cls-7" points="4.37 35.21 14.23 25.36 14.23 25.88 4.82 35.29 4.37 35.29 4.37 35.21"/><polygon class="cls-8" points="4.37 34.68 14.23 24.83 14.23 25.36 4.37 35.21 4.37 34.68"/><polygon class="cls-9" points="4.37 34.16 14.23 24.3 14.23 24.83 4.37 34.68 4.37 34.16"/><polygon class="cls-10" points="4.37 33.63 14.23 23.78 14.23 24.3 4.37 34.16 4.37 33.63"/><polygon class="cls-11" points="4.37 33.1 14.23 23.25 14.23 23.78 4.37 33.63 4.37 33.1"/><polygon class="cls-12" points="4.37 32.58 14.23 22.72 14.23 23.25 4.37 33.1 4.37 32.58"/><polygon class="cls-13" points="4.37 32.05 14.23 22.2 14.23 22.72 4.37 32.58 4.37 32.05"/><polygon class="cls-14" points="4.37 31.52 14.23 21.67 14.23 22.2 4.37 32.05 4.37 31.52"/><polygon class="cls-15" points="4.37 31 14.23 21.14 14.23 21.67 4.37 31.52 4.37 31"/><polygon class="cls-16" points="4.37 30.47 14.23 20.62 14.23 21.14 4.37 31 4.37 30.47"/><polygon class="cls-17" points="4.37 29.95 14.23 20.09 14.23 20.62 4.37 30.47 4.37 29.95"/><polygon class="cls-18" points="4.37 29.42 14.23 19.56 14.23 20.09 4.37 29.95 4.37 29.42"/><polygon class="cls-19" points="4.37 28.89 13.75 19.52 14.23 19.52 14.23 19.56 4.37 29.42 4.37 28.89"/><polygon class="cls-20" points="4.37 28.37 13.22 19.52 13.75 19.52 4.37 28.89 4.37 28.37"/><polygon class="cls-21" points="4.37 27.84 12.7 19.52 13.22 19.52 4.37 28.37 4.37 27.84"/><polygon class="cls-22" points="4.37 27.31 12.17 19.52 12.7 19.52 4.37 27.84 4.37 27.31"/><polygon class="cls-22" points="4.37 26.79 11.64 19.52 12.17 19.52 4.37 27.31 4.37 26.79"/><polygon class="cls-22" points="11.64 19.52 4.37 26.79 4.37 19.52 11.64 19.52"/></g><g class="cls-26"><polygon class="cls-3" points="34.58 18.23 34.63 18.18 34.63 18.23 34.58 18.23"/><polygon class="cls-3" points="34.57 18.23 34.63 18.17 34.63 18.18 34.58 18.23 34.57 18.23"/><polygon class="cls-4" points="34.56 18.23 34.63 18.16 34.63 18.17 34.57 18.23 34.56 18.23"/><polygon class="cls-5" points="34.55 18.23 34.63 18.15 34.63 18.16 34.56 18.23 34.55 18.23"/><polygon class="cls-6" points="34.54 18.23 34.63 18.15 34.63 18.15 34.55 18.23 34.54 18.23"/><polygon class="cls-7" points="34.53 18.23 34.63 18.14 34.63 18.15 34.54 18.23 34.53 18.23"/><polygon class="cls-8" points="34.53 18.23 34.63 18.13 34.63 18.14 34.53 18.23 34.53 18.23"/><polygon class="cls-9" points="34.52 18.23 34.63 18.12 34.63 18.13 34.53 18.23 34.52 18.23 34.52 18.23"/><polygon class="cls-10" points="34.52 18.22 34.63 18.11 34.63 18.12 34.52 18.23 34.52 18.22"/><polygon class="cls-11" points="34.52 18.21 34.63 18.11 34.63 18.11 34.52 18.22 34.52 18.21"/><polygon class="cls-12" points="34.52 18.2 34.63 18.1 34.63 18.11 34.52 18.21 34.52 18.2"/><polygon class="cls-13" points="34.52 18.2 34.63 18.09 34.63 18.1 34.52 18.2 34.52 18.2"/><polygon class="cls-14" points="34.52 18.19 34.63 18.08 34.63 18.09 34.52 18.2 34.52 18.19"/><polygon class="cls-15" points="34.52 18.18 34.63 18.07 34.63 18.08 34.52 18.19 34.52 18.18"/><polygon class="cls-16" points="34.52 18.17 34.63 18.07 34.63 18.07 34.52 18.18 34.52 18.17"/><polygon class="cls-17" points="34.52 18.16 34.63 18.06 34.63 18.06 34.63 18.07 34.52 18.17 34.52 18.16"/><polygon class="cls-18" points="34.52 18.16 34.62 18.06 34.63 18.06 34.52 18.16 34.52 18.16"/><polygon class="cls-19" points="34.52 18.15 34.61 18.06 34.62 18.06 34.52 18.16 34.52 18.15"/><polygon class="cls-20" points="34.52 18.14 34.6 18.06 34.61 18.06 34.52 18.15 34.52 18.14"/><polygon class="cls-21" points="34.52 18.13 34.59 18.06 34.6 18.06 34.52 18.14 34.52 18.13"/><polygon class="cls-22" points="34.52 18.12 34.59 18.06 34.59 18.06 34.52 18.13 34.52 18.12"/><polygon class="cls-22" points="34.52 18.12 34.58 18.06 34.59 18.06 34.52 18.12 34.52 18.12"/><polygon class="cls-22" points="34.58 18.06 34.52 18.12 34.52 18.06 34.58 18.06"/></g><g class="cls-27"><polygon class="cls-3" points="29.27 34.25 47.92 15.6 47.92 34.25 29.27 34.25"/><polygon class="cls-3" points="28.46 34.25 47.92 14.79 47.92 15.6 29.27 34.25 28.46 34.25"/><polygon class="cls-4" points="27.65 34.25 47.92 13.98 47.92 14.79 28.46 34.25 27.65 34.25"/><polygon class="cls-5" points="26.84 34.25 47.92 13.16 47.92 13.98 27.65 34.25 26.84 34.25"/><polygon class="cls-6" points="26.02 34.25 47.92 12.35 47.92 13.16 26.84 34.25 26.02 34.25"/><polygon class="cls-7" points="26.01 33.46 47.92 11.54 47.92 12.35 26.02 34.25 26.01 34.25 26.01 33.46"/><polygon class="cls-8" points="26.01 32.64 47.92 10.73 47.92 11.54 26.01 33.46 26.01 32.64"/><polygon class="cls-9" points="26.01 31.83 47.92 9.91 47.92 10.73 26.01 32.64 26.01 31.83"/><polygon class="cls-10" points="26.01 31.02 47.92 9.1 47.92 9.91 26.01 31.83 26.01 31.02"/><polygon class="cls-11" points="26.01 30.2 47.92 8.29 47.92 9.1 26.01 31.02 26.01 30.2"/><polygon class="cls-12" points="26.01 29.39 47.92 7.47 47.92 8.29 26.01 30.2 26.01 29.39"/><polygon class="cls-13" points="26.01 28.58 47.92 6.66 47.92 7.47 26.01 29.39 26.01 28.58"/><polygon class="cls-14" points="26.01 27.77 47.92 5.85 47.92 6.66 26.01 28.58 26.01 27.77"/><polygon class="cls-15" points="26.01 26.95 47.92 5.04 47.92 5.85 26.01 27.77 26.01 26.95"/><polygon class="cls-16" points="26.01 26.14 47.92 4.22 47.92 5.04 26.01 26.95 26.01 26.14"/><polygon class="cls-17" points="26.01 25.33 47.92 3.41 47.92 4.22 26.01 26.14 26.01 25.33"/><polygon class="cls-18" points="26.01 24.52 47.92 2.6 47.92 3.41 26.01 25.33 26.01 24.52"/><polygon class="cls-19" points="26.01 23.7 47.92 1.79 47.92 2.6 26.01 24.52 26.01 23.7"/><polygon class="cls-20" points="26.01 22.89 47.79 1.11 47.92 1.11 47.92 1.79 26.01 23.7 26.01 22.89"/><polygon class="cls-21" points="26.01 22.08 46.97 1.11 47.79 1.11 26.01 22.89 26.01 22.08"/><polygon class="cls-22" points="26.01 21.27 46.16 1.11 46.97 1.11 26.01 22.08 26.01 21.27"/><polygon class="cls-22" points="26.01 20.45 45.35 1.11 46.16 1.11 26.01 21.27 26.01 20.45"/><polygon class="cls-22" points="45.35 1.11 26.01 20.45 26.01 1.11 45.35 1.11"/></g><g class="cls-28"><polygon class="cls-3" points="18.56 16.64 26.32 8.87 26.32 16.64 18.56 16.64"/><polygon class="cls-3" points="18.05 16.64 26.32 8.37 26.32 8.87 18.56 16.64 18.05 16.64"/><polygon class="cls-4" points="17.55 16.64 26.32 7.87 26.32 8.37 18.05 16.64 17.55 16.64"/><polygon class="cls-29" points="17.05 16.64 26.32 7.37 26.32 7.87 17.55 16.64 17.05 16.64"/><polygon class="cls-30" points="16.55 16.64 26.32 6.87 26.32 7.37 17.05 16.64 16.55 16.64"/><polygon class="cls-31" points="16.05 16.64 26.32 6.37 26.32 6.87 16.55 16.64 16.05 16.64"/><polygon class="cls-32" points="15.94 16.25 26.32 5.87 26.32 6.37 16.05 16.64 15.94 16.64 15.94 16.25"/><polygon class="cls-8" points="15.94 15.75 26.32 5.37 26.32 5.87 15.94 16.25 15.94 15.75"/><polygon class="cls-9" points="15.94 15.25 26.32 4.87 26.32 5.37 15.94 15.75 15.94 15.25"/><polygon class="cls-33" points="15.94 14.75 26.32 4.37 26.32 4.87 15.94 15.25 15.94 14.75"/><polygon class="cls-34" points="15.94 14.25 26.32 3.87 26.32 4.37 15.94 14.75 15.94 14.25"/><polygon class="cls-35" points="15.94 13.75 26.32 3.36 26.32 3.87 15.94 14.25 15.94 13.75"/><polygon class="cls-36" points="15.94 13.25 26.32 2.86 26.32 3.36 15.94 13.75 15.94 13.25"/><polygon class="cls-37" points="15.94 12.75 26.32 2.36 26.32 2.86 15.94 13.25 15.94 12.75"/><polygon class="cls-38" points="15.94 12.25 26.32 1.86 26.32 2.36 15.94 12.75 15.94 12.25"/><polygon class="cls-15" points="15.94 11.74 26.05 1.64 26.32 1.64 26.32 1.86 15.94 12.25 15.94 11.74"/><polygon class="cls-39" points="15.94 11.24 25.55 1.64 26.05 1.64 15.94 11.74 15.94 11.24"/><polygon class="cls-40" points="15.94 10.74 25.04 1.64 25.55 1.64 15.94 11.24 15.94 10.74"/><polygon class="cls-19" points="15.94 10.24 24.54 1.64 25.04 1.64 15.94 10.74 15.94 10.24"/><polygon class="cls-20" points="15.94 9.74 24.04 1.64 24.54 1.64 15.94 10.24 15.94 9.74"/><polygon class="cls-21" points="15.94 9.24 23.54 1.64 24.04 1.64 15.94 9.74 15.94 9.24"/><polygon class="cls-22" points="15.94 8.74 23.04 1.64 23.54 1.64 15.94 9.24 15.94 8.74"/><polygon class="cls-22" points="23.04 1.64 15.94 8.74 15.94 1.64 23.04 1.64"/></g><g class="cls-41"><polygon class="cls-3" points="33.72 16.6 36.31 14.01 36.31 16.6 33.72 16.6"/><polygon class="cls-3" points="32.48 16.6 36.31 12.77 36.31 14.01 33.72 16.6 32.48 16.6"/><polygon class="cls-4" points="31.24 16.6 36.31 11.53 36.31 12.77 32.48 16.6 31.24 16.6"/><polygon class="cls-29" points="30.65 16.6 30.32 16.27 36.31 10.28 36.31 11.53 31.24 16.6 30.65 16.6"/><polygon class="cls-30" points="30.32 16.27 29.7 15.65 36.31 9.04 36.31 10.28 30.32 16.27"/><polygon class="cls-31" points="29.7 15.65 29.08 15.03 36.31 7.8 36.31 9.04 29.7 15.65"/><polygon class="cls-32" points="29.08 15.03 28.46 14.41 36.31 6.56 36.31 7.8 29.08 15.03"/><polygon class="cls-8" points="28.46 14.41 27.84 13.79 36.31 5.32 36.31 6.56 28.46 14.41"/><polygon class="cls-9" points="27.84 13.79 27.22 13.17 35.81 4.58 36.31 5.08 36.31 5.32 27.84 13.79"/><rect class="cls-33" x="25.13" y="8.12" width="12.15" height="0.88" transform="translate(3.08 24.57) rotate(-45)"/><rect class="cls-34" x="24.51" y="7.5" width="12.15" height="0.88" transform="translate(3.34 23.95) rotate(-45)"/><rect class="cls-35" x="23.89" y="6.88" width="12.15" height="0.88" transform="translate(3.6 23.33) rotate(-45)"/><rect class="cls-36" x="23.27" y="6.26" width="12.15" height="0.88" transform="translate(3.85 22.71) rotate(-45)"/><rect class="cls-37" x="22.65" y="5.64" width="12.15" height="0.88" transform="translate(4.11 22.09) rotate(-45)"/><rect class="cls-38" x="22.03" y="5.02" width="12.15" height="0.88" transform="translate(4.37 21.47) rotate(-45)"/><rect class="cls-15" x="21.4" y="4.4" width="12.15" height="0.88" transform="translate(4.63 20.85) rotate(-45)"/><polygon class="cls-39" points="22.87 8.82 22.25 8.2 30.45 0 31.23 0 31.46 0.23 22.87 8.82"/><polygon class="cls-40" points="22.25 8.2 21.63 7.58 29.21 0 30.45 0 22.25 8.2"/><polygon class="cls-19" points="21.63 7.58 21.03 6.98 21.03 6.94 27.97 0 29.21 0 21.63 7.58"/><polygon class="cls-20" points="21.03 5.7 26.73 0 27.97 0 21.03 6.94 21.03 5.7"/><polygon class="cls-21" points="21.03 4.46 25.49 0 26.73 0 21.03 5.7 21.03 4.46"/><polygon class="cls-22" points="21.03 3.21 24.25 0 25.49 0 21.03 4.46 21.03 3.21"/><polygon class="cls-22" points="24.25 0 21.03 3.21 21.03 0 24.25 0"/></g><path class="cls-22" d="M86.39,8.29a8,8,0,0,1,6.44,3,9.51,9.51,0,0,1,1.69,3.22,13,13,0,0,1,.58,3.92V28.63H91.32V18.44A9.83,9.83,0,0,0,91,16a6.36,6.36,0,0,0-.91-2,4.46,4.46,0,0,0-1.56-1.37,4.77,4.77,0,0,0-4.29,0A5.6,5.6,0,0,0,82.56,14a7.26,7.26,0,0,0-1.11,2,7.13,7.13,0,0,0-.4,2.41V28.63H77.27v-10A10.41,10.41,0,0,0,77,16,6.33,6.33,0,0,0,76.06,14a4.33,4.33,0,0,0-1.55-1.4,4.6,4.6,0,0,0-2.17-.5,4.53,4.53,0,0,0-2.13.52A5.45,5.45,0,0,0,68.52,14a7,7,0,0,0-1.12,2A7.38,7.38,0,0,0,67,18.44V28.63H63.22V8.73H67v3.5a6.65,6.65,0,0,1,1.37-1.83,7.46,7.46,0,0,1,1.67-1.19,8,8,0,0,1,1.69-.64,6.35,6.35,0,0,1,1.35-.2,7,7,0,0,1,2,.3A6.56,6.56,0,0,1,77,9.55,6.91,6.91,0,0,1,78.51,11a7,7,0,0,1,1.07,2,7.63,7.63,0,0,1,2.69-3.42A7,7,0,0,1,86.39,8.29Z" transform="translate(0 0)"/><path class="cls-22" d="M108.55,8.29a9,9,0,0,1,3.64.72A8.48,8.48,0,0,1,115,11a9.37,9.37,0,0,1,1.85,3,10.5,10.5,0,0,1,.65,3.76v1.92H102.3A6.34,6.34,0,0,0,103,22a6.17,6.17,0,0,0,1.41,1.75,6.5,6.5,0,0,0,4.24,1.58,7.73,7.73,0,0,0,3.08-.66,9.52,9.52,0,0,0,2.85-1.93l2.51,2.83a18.78,18.78,0,0,1-2.25,1.75,12.27,12.27,0,0,1-2,1.07,9.44,9.44,0,0,1-2,.56,13.79,13.79,0,0,1-2.07.16,10.3,10.3,0,0,1-4.06-.82A10.46,10.46,0,0,1,101.35,26a10.18,10.18,0,0,1-2.25-3.3,10,10,0,0,1-.82-4,10.36,10.36,0,0,1,6.25-9.57A10,10,0,0,1,108.55,8.29Zm4.74,7.64a4.86,4.86,0,0,0-1.62-2.78,4.59,4.59,0,0,0-3.12-1.08A5.91,5.91,0,0,0,103,15.93Z" transform="translate(0 0)"/><path class="cls-22" d="M128.61,8.49h4.61v3.78h-4.61v9.91a2.4,2.4,0,0,0,.85,1.95,3.57,3.57,0,0,0,2.37.72h1.35v3.78h-1.87a6.54,6.54,0,0,1-2.54-.5,6.29,6.29,0,0,1-2.07-1.37,6.33,6.33,0,0,1-1.87-4.58V12.27h-4.58V8.49h4.58V3.36h3.78Z" transform="translate(0 0)"/><path class="cls-22" d="M160.8,8.73h4.06l-7.36,19.9h-2.63l-4.69-11.1-4.78,11.1h-2.59l-7.32-19.9h4l4.74,12.86,4.53-10.75h2.75l4.53,10.71Z" transform="translate(0 0)"/><path class="cls-22" d="M176.56,8.21a9.65,9.65,0,0,1,4,.84,11.07,11.07,0,0,1,3.32,2.25,10.56,10.56,0,0,1,2.27,3.3,10,10,0,0,1,0,8,11.07,11.07,0,0,1-2.25,3.32,10.56,10.56,0,0,1-3.3,2.27,9.94,9.94,0,0,1-8,0,10.56,10.56,0,0,1-3.3-2.27A10.71,10.71,0,0,1,167,22.56a9.8,9.8,0,0,1,0-7.94,10.63,10.63,0,0,1,2.27-3.3,10.77,10.77,0,0,1,3.32-2.27A9.65,9.65,0,0,1,176.56,8.21Zm0,17a6.06,6.06,0,0,0,2.51-.54,6.77,6.77,0,0,0,2.08-1.45,7.31,7.31,0,0,0,1.44-2.11,6,6,0,0,0,.53-2.51,6.13,6.13,0,0,0-.53-2.55,7.45,7.45,0,0,0-1.44-2.11,6.94,6.94,0,0,0-2.08-1.45,6.05,6.05,0,0,0-2.51-.53,6.14,6.14,0,0,0-2.53.53,7,7,0,0,0-2.11,1.45,7.63,7.63,0,0,0-1.43,2.11A6.14,6.14,0,0,0,170,18.6a6,6,0,0,0,.54,2.51,7.49,7.49,0,0,0,1.43,2.11A6.78,6.78,0,0,0,174,24.67,6.15,6.15,0,0,0,176.56,25.21Z" transform="translate(0 0)"/><path class="cls-22" d="M194.31,11.84a5.43,5.43,0,0,1,2-2.63,5,5,0,0,1,3-.92,6.22,6.22,0,0,1,1.35.16c.45.11,1,.26,1.56.44l-1,3.58a8.11,8.11,0,0,0-2.23-.4,4.38,4.38,0,0,0-3.44,1.42,5.25,5.25,0,0,0-1.25,3.64v11.5h-3.78V8.73h3.78Z" transform="translate(0 0)"/><path class="cls-22" d="M211.06,19.2l-2.39,2.19v7.24h-3.78V2.29h3.78v14l7.64-7.56h5.61l-8,7.92,8.71,12h-4.54Z" transform="translate(0 0)"/></g></g></svg>